<?xml version="1.0" encoding="UTF-8" standalone="no"?>
<!-- Created with Inkscape (http://www.inkscape.org/) -->

<svg
   xmlns:dc="http://purl.org/dc/elements/1.1/"
   xmlns:cc="http://creativecommons.org/ns#"
   xmlns:rdf="http://www.w3.org/1999/02/22-rdf-syntax-ns#"
   xmlns:svg="http://www.w3.org/2000/svg"
   xmlns="http://www.w3.org/2000/svg"
   xmlns:sodipodi="http://sodipodi.sourceforge.net/DTD/sodipodi-0.dtd"
   xmlns:inkscape="http://www.inkscape.org/namespaces/inkscape"
   width="64px"
   height="64px"
   id="svg3033"
   version="1.1"
   inkscape:version="0.48.4 r9939"
   sodipodi:docname="Nouveau document 3">
  <defs
     id="defs3035" />
  <sodipodi:namedview
     id="base"
     pagecolor="#ffffff"
     bordercolor="#666666"
     borderopacity="1.0"
     inkscape:pageopacity="0.0"
     inkscape:pageshadow="2"
     inkscape:zoom="3.8890873"
     inkscape:cx="104.22049"
     inkscape:cy="2.9516207"
     inkscape:current-layer="layer1"
     showgrid="true"
     inkscape:document-units="px"
     inkscape:grid-bbox="true"
     inkscape:window-width="1303"
     inkscape:window-height="744"
     inkscape:window-x="63"
     inkscape:window-y="24"
     inkscape:window-maximized="1" />
  <metadata
     id="metadata3038">
    <rdf:RDF>
      <cc:Work
         rdf:about="">
        <dc:format>image/svg+xml</dc:format>
        <dc:type
           rdf:resource="http://purl.org/dc/dcmitype/StillImage" />
        <dc:title></dc:title>
      </cc:Work>
    </rdf:RDF>
  </metadata>
  <g
     id="layer1"
     inkscape:label="Layer 1"
     inkscape:groupmode="layer">
    <g
       transform="matrix(0.12985039,0,0,0.12985039,0.49744994,0.49751491)"
       id="g3">
      <path
         inkscape:connector-curvature="0"
         d="m 485.212,272.93 v -60.648 l -65.535,-10.93 c -4.564,-19.69 -12.321,-38.083 -22.72,-54.756 l 38.647,-54.078 -42.876,-42.883 -54.11,38.62 C 321.943,77.889 303.555,70.1 283.859,65.51 L 272.934,0 h -60.65 l -10.931,65.509 c -19.662,4.59 -38.083,12.379 -54.756,22.745 L 92.489,49.634 49.607,92.518 88.255,146.596 C 77.859,163.241 70.1,181.662 65.538,201.352 l -65.537,10.93 v 60.648 l 65.537,10.931 c 4.562,19.695 12.321,38.088 22.717,54.759 l -38.648,54.105 42.881,42.881 54.136,-38.643 c 16.646,10.393 35.066,18.154 54.729,22.714 l 10.931,65.535 h 60.65 l 10.926,-65.535 c 19.663,-4.56 38.084,-12.321 54.759,-22.714 l 54.11,38.643 42.876,-42.881 -38.647,-54.105 c 10.398,-16.671 18.155,-35.092 22.72,-54.759 l 65.534,-10.931 z m -242.605,90.976 c -66.989,0 -121.302,-54.311 -121.302,-121.3 0,-66.989 54.313,-121.302 121.302,-121.302 66.991,0 121.302,54.313 121.302,121.302 0,66.989 -54.31,121.3 -121.302,121.3 z"
         id="path5"
         style="fill:#ffffff" />
    </g>
    <g
       transform="matrix(0.12985039,0,0,0.12985039,0.49744994,0.49751491)"
       id="g7" />
    <g
       transform="matrix(0.12985039,0,0,0.12985039,0.49744994,0.49751491)"
       id="g9" />
    <g
       transform="matrix(0.12985039,0,0,0.12985039,0.49744994,0.49751491)"
       id="g11" />
    <g
       transform="matrix(0.12985039,0,0,0.12985039,0.49744994,0.49751491)"
       id="g13" />
    <g
       transform="matrix(0.12985039,0,0,0.12985039,0.49744994,0.49751491)"
       id="g15" />
    <g
       transform="matrix(0.12985039,0,0,0.12985039,0.49744994,0.49751491)"
       id="g17" />
    <g
       transform="matrix(0.12985039,0,0,0.12985039,0.49744994,0.49751491)"
       id="g19" />
    <g
       transform="matrix(0.12985039,0,0,0.12985039,0.49744994,0.49751491)"
       id="g21" />
    <g
       transform="matrix(0.12985039,0,0,0.12985039,0.49744994,0.49751491)"
       id="g23" />
    <g
       transform="matrix(0.12985039,0,0,0.12985039,0.49744994,0.49751491)"
       id="g25" />
    <g
       transform="matrix(0.12985039,0,0,0.12985039,0.49744994,0.49751491)"
       id="g27" />
    <g
       transform="matrix(0.12985039,0,0,0.12985039,0.49744994,0.49751491)"
       id="g29" />
    <g
       transform="matrix(0.12985039,0,0,0.12985039,0.49744994,0.49751491)"
       id="g31" />
    <g
       transform="matrix(0.12985039,0,0,0.12985039,0.49744994,0.49751491)"
       id="g33" />
    <g
       transform="matrix(0.12985039,0,0,0.12985039,0.49744994,0.49751491)"
       id="g35" />
  </g>
</svg>
